<svg width="512" height="512" viewBox="0 0 512 512" xmlns="http://www.w3.org/2000/svg" xmlns:xlink="http://www.w3.org/1999/xlink"><defs><linearGradient x1="73.6%" y1="0%" x2="46.6%" y2="100%" id="a"><stop stop-color="#3EBD6F" offset="0%"/><stop stop-color="#1E7644" offset="100%"/></linearGradient><filter x="-8.2%" y="-6.3%" width="116.3%" height="115.2%" filterUnits="objectBoundingBox" id="b"><feOffset dy="4" in="SourceAlpha" result="shadowOffsetOuter1"/><feGaussianBlur stdDeviation="7.5" in="shadowOffsetOuter1" result="shadowBlurOuter1"/><feColorMatrix values="0 0 0 0 0 0 0 0 0 0 0 0 0 0 0 0 0 0 0.2 0" in="shadowBlurOuter1"/></filter><path d="M273.7 125.7A61.7 61.7 0 0 1 356 101a59 59 0 0 1 24.7 79.4l-.2.4a57.2 57.2 0 0 1-24.8 24.5l-.4.2c-.5.3-13.9 8.1-12.6 49.4.9 42.3 14.3 48.1 14.3 48.1h-1.6l6 2.9A59 59 0 1 1 305.8 410a58.7 58.7 0 0 1-31.1-54.1c-.7-5.7-5.1-21.5-35-37.4-37.9-20.2-51-9.5-51-9.5l.4-.6a59.2 59.2 0 0 1-85-80.3 59.1 59.1 0 0 1 78.6-16l-1-1.5h.2c1.5 1 18.2 10.2 52.4-11.1 36.2-22.5 32.7-37.7 32.7-37.7l.6 1a58.3 58.3 0 0 1 6-37.1Zm24.2 258.1.1.2a16.9 16.9 0 0 0 .2.1l-.3-.3Zm32.1-75.4a44.5 44.5 0 0 0-30 15.8 43.7 43.7 0 0 0-2.9 59.4l.2.2v-.1c-6.5-8.4-5.6-23.4 2-37.5a8 8 0 0 1 8.7-3.2c.3 0 .6.3 1 .3 1 .3 2 .4 3.1.4 3.3-.1 6.5-1.6 8.7-4a12 12 0 0 0 3.1-8.9c0-3-1.2-5.8-3.5-7.9 16-10.3 34.2-11.6 41.8-4.7h.3c-9-7.4-20.7-11-32.5-9.8ZM291.2 201h-.2c-2.9-1.1-17.5-4.4-48.5 14.8-35.4 21.8-32.9 35.4-32.9 35.4l-.3-.3c.8 5 1 10.1.7 15.2.6 4.1 5.3 18 36.3 34.8 28.4 15.1 42 13.2 46.8 11.7 4.3-3.9 9.3-7 14.5-9.5 5.1-4 14.3-16 13.3-47.4-1-31.3-8.8-43-13.3-47.1a49.6 49.6 0 0 1-16.4-7.6Zm-177 89.5a17.4 17.4 0 0 0 .3.3l-.3-.3Zm3-59.8a43.7 43.7 0 0 0-2.8 59.5l.2.3-.1-.2c-6.4-8.4-5.5-23.4 2-37.6 2-2.8 5.5-4 8.7-3l1 .2c1 .3 2.1.4 3.2.3 3.3 0 6.4-1.5 8.6-4a12 12 0 0 0 3.2-8.8c0-3-1.3-5.9-3.5-8 16-10.3 34.1-11.6 41.8-4.6h.3a45 45 0 0 0-62.5 6Zm169.6-51 .2.2a16.2 16.2 0 0 0 .2.2l-.4-.4Zm33-75.4a44.4 44.4 0 0 0-30 15.8 43.8 43.8 0 0 0-2.8 59.5l.1.1c-6.4-8.4-5.5-23.4 2.1-37.6 1.9-2.8 5.4-4 8.7-3.2.2 0 .6.4 1 .4a12.3 12.3 0 0 0 11.8-3.7 12 12 0 0 0 3-9c0-2.9-1.2-5.7-3.4-7.7 16-10.4 34.1-11.7 41.7-4.8h.4c-9-7.4-20.8-11-32.5-9.8Z" id="c"/></defs><g fill="none" fill-rule="evenodd"><path fill="url(#a)" d="M0 0h512v512H0z"/><path d="M355.3-219a226 226 0 0 1 301.6-90.5A216 216 0 0 1 747.3-19l-.8 1.5A209.3 209.3 0 0 1 656 72.2l-1.4.7c-2 1-51 29.7-46.4 180.7 3.5 155 52.4 176 52.4 176h-5.9c7 3.6 15.1 7 22.1 10.5a216 216 0 0 1 13 374.4 217 217 0 0 1-216.8 6.7 214.9 214.9 0 0 1-114-198.1c-2.3-20.7-18.7-78.7-128.2-136.6-138.5-74.2-186.2-34.8-186.2-34.8l1-2.4A216.6 216.6 0 0 1-238.2 438a215.3 215.3 0 0 1-27.4-282.1A216.5 216.5 0 0 1 10.7 90.2c4 2 7.9 4.4 11.6 7l-3.5-5.8.4.3C25 95.3 86 129 211 51 343.6-31.4 331-87 331-87l2.2 3.5c-7.8-46.3 0-94 22-135.4ZM444 725l.4.5a64 64 0 0 0 .7.6L444 725Zm117-276.3c-43 4.1-82.6 25-110 58A160.1 160.1 0 0 0 440.7 724l.7.9-.4-.6c-23.3-30.8-20-85.5 8-137.3a28.5 28.5 0 0 1 31.5-11.4c1 0 2.3 1 3.5 1a45 45 0 0 0 43.3-13.3 43.8 43.8 0 0 0 11.5-32.5 39 39 0 0 0-12.7-28.8c58.4-37.9 124.8-42.5 152.8-17.2h1.2a163.5 163.5 0 0 0-119-36.2ZM419.8 56.4l-.6-.3c-10.8-3.7-64.3-15.6-177.8 54.6C112 190.4 121.2 240 121.2 240l-1.2-1c3 18.3 3.9 36.9 2.4 55.4 2.3 15 19.7 65.9 133.1 127 104 55.4 154 48.6 171.3 42.8 16-14 34-25.7 53.3-34.4 18.5-15 52.1-58.7 48.7-173.3C525.3 141.9 496.4 99 480 84c-14.1-3.6-27.7-9-40.5-16.1-7-3.2-13.5-7.1-19.7-11.6ZM-228 384l.2.3a65.8 65.8 0 0 0 .7.7l-.9-1Zm11.2-218.8A160 160 0 0 0-227.3 383l1 1-.6-.7c-23.4-31-20.2-85.7 7.7-137.6a28.5 28.5 0 0 1 31.6-11.4c1 0 2.3 1.2 3.5 1.2a45 45 0 0 0 43.4-13.5 43.9 43.9 0 0 0 11.4-32.6c0-10.9-4.6-21.3-12.7-28.8 58.3-38 124.9-42.6 153-17.2h1a164.6 164.6 0 0 0-228.8 21.8ZM403-22l.6.7a61.4 61.4 0 0 0 .7.6L403-22Zm121-275.3c-43 4.1-82.5 25-109.9 58a160.3 160.3 0 0 0-10.5 217.7l.6.6-.2-.3c-23.3-30.8-20-85.6 7.9-137.4a28.7 28.7 0 0 1 31.6-11.6c1 0 2.2 1.2 3.4 1.2a45 45 0 0 0 43.2-13.5 43.6 43.6 0 0 0 11.5-32.6c0-10.9-4.6-21.3-12.7-28.6 58.4-38 125-42.6 152.9-17.3h1.2a163.4 163.4 0 0 0-119-36.2Z" fill="#FFF" fill-rule="nonzero" opacity=".1"/><g fill-rule="nonzero"><use fill="#000" filter="url(#b)" xlink:href="#c"/><use fill="#FFF" xlink:href="#c"/></g></g></svg>