<svg width="300" height="300" viewBox="0 0 300 300" xmlns="http://www.w3.org/2000/svg"><path d="M178.8 29.4c15-27 49-37.2 76.5-23a54.8 54.8 0 0 1 23 73.8l-.3.4a53.1 53.1 0 0 1-23 22.7l-.3.2c-.5.3-13 7.6-11.8 45.9.9 39.3 13.3 44.7 13.3 44.7h-1.5c1.8.9 3.9 1.7 5.6 2.6a54.8 54.8 0 1 1-51.7 96.8 54.5 54.5 0 0 1-29-50.3c-.5-5.3-4.6-20-32.4-34.7-35.2-18.8-47.3-8.8-47.3-8.8l.3-.6a55 55 0 0 1-79-74.5 55 55 0 0 1 73-14.9l-.8-1.5.1.1c1.5 1 17 9.5 48.7-10.4 33.6-20.9 30.4-35 30.4-35l.6 1c-2-11.8 0-24 5.6-34.5Zm22.5 239.7v.2a15.7 15.7 0 0 0 .2.1l-.2-.3Zm29.8-70a41 41 0 0 0-27.9 14.6 40.6 40.6 0 0 0-2.7 55.2l.2.2v-.1c-6-7.8-5.2-21.7 2-34.8 1.7-2.6 5-3.8 8-3 .2 0 .5.3.8.3 1 .3 2 .4 3 .3a11.1 11.1 0 0 0 11-12c0-2.7-1.2-5.3-3.3-7.2 14.8-9.6 31.7-10.8 38.8-4.4h.3A41.5 41.5 0 0 0 231 199Zm-36-99.7h-.2c-2.7-1-16.3-4-45 13.8-33 20.3-30.6 32.9-30.6 32.9l-.3-.3c.8 4.7 1 9.4.6 14.1.6 3.8 5 16.7 33.8 32.3 26.4 14 39 12.3 43.4 10.8 4-3.5 8.6-6.5 13.5-8.7 4.7-3.8 13.2-15 12.4-44-1-29.2-8.3-40-12.4-43.8a48.1 48.1 0 0 1-15.3-7.1ZM30.6 182.6a16.1 16.1 0 0 0 .2.2l-.2-.2Zm2.8-55.5a40.6 40.6 0 0 0-2.6 55.2l.2.3-.2-.2c-5.9-7.9-5-21.7 2-35 1.7-2.5 5-3.7 8-2.8.3 0 .6.3 1 .3a11.4 11.4 0 0 0 11-3.4c2-2.3 3-5.3 2.8-8.3a10 10 0 0 0-3.2-7.3c14.8-9.6 31.7-10.8 38.8-4.4h.3a41.8 41.8 0 0 0-58 5.6ZM191 79.7l.1.2a15 15 0 0 0 .2.1l-.3-.3Zm30.7-70c-11 1-21 6.3-28 14.6a40.7 40.7 0 0 0-2.6 55.3l.2.1h-.1c-6-7.9-5-21.8 2-35 1.7-2.5 5-3.7 8-2.9.3 0 .6.3 1 .3a11.4 11.4 0 0 0 11-3.4c2-2.2 3-5.2 2.8-8.3 0-2.7-1.2-5.4-3.3-7.2 14.9-9.7 31.8-10.8 38.8-4.4h.4a41.4 41.4 0 0 0-30.2-9.2Z" fill="#3ebd6f"/></svg>